<?xml version="1.0" encoding="UTF-8"?>
<svg version="1.1" xmlns="http://www.w3.org/2000/svg" width="104" height="102">
<path d="M0 0 C2.11139457 2.69354657 3.81953779 5.36796168 5.37597656 8.41381836 C5.8194342 9.27829086 6.26289185 10.14276337 6.7197876 11.03343201 C7.42310211 12.42260582 7.42310211 12.42260582 8.140625 13.83984375 C8.62706482 14.79895157 9.11350464 15.75805939 9.61468506 16.74623108 C10.63899995 18.77162404 11.66093945 20.79821983 12.68066406 22.82592773 C14.24572034 25.92901459 15.82969195 29.02197462 17.4140625 32.11523438 C18.40743877 34.08533854 19.39966563 36.05602278 20.390625 38.02734375 C20.86759827 38.95143539 21.34457153 39.87552704 21.83599854 40.82762146 C22.26684753 41.69524612 22.69769653 42.56287079 23.14160156 43.45678711 C23.5256012 44.21527451 23.90960083 44.9737619 24.30523682 45.75523376 C25.41273815 49.33354889 24.462361 51.99368488 22.9375 55.3125 C22.628125 55.869375 22.31875 56.42625 22 57 C13.55177859 56.63268603 6.77569133 52.27285516 1.125 46.125 C-6.74971493 36.43018586 -8.19496749 26.18624208 -7 14 C-5.63653078 8.5866222 -3.43658955 4.37205089 0 0 Z " fill="#D9D9D9" transform="translate(24,29)"/>
<path d="M0 0 C2.14576637 -0.02685938 4.29162645 -0.04633088 6.4375 -0.0625 C7.63246094 -0.07410156 8.82742187 -0.08570313 10.05859375 -0.09765625 C13 0 13 0 14 1 C14.99869133 13.54094359 13.41750315 23.98793171 5.12109375 33.92578125 C-1.64799328 40.5452752 -9.45239272 44.82388548 -18.9375 45.125 C-19.948125 45.08375 -20.95875 45.0425 -22 45 C-20.08610068 38.59383255 -17.57077251 32.86262797 -14.375 27 C-13.94203613 26.19199951 -13.50907227 25.38399902 -13.06298828 24.55151367 C-12.16438141 22.87458203 -11.26316072 21.19904851 -10.359375 19.52490234 C-8.17440274 15.46653612 -6.0268087 11.3885139 -3.875 7.3125 C-2.5840696 4.87460913 -1.29200025 2.43732414 0 0 Z " fill="#DADADA" transform="translate(75,42)"/>
<path d="M0 0 C4.92169442 3.38597774 8.76902762 7.53484191 11.828125 12.6796875 C11.828125 13.3396875 11.828125 13.9996875 11.828125 14.6796875 C-5.001875 14.6796875 -21.831875 14.6796875 -39.171875 14.6796875 C-40.821875 11.3796875 -42.471875 8.0796875 -44.171875 4.6796875 C-43.03779759 1.27745528 -42.48056767 0.9238438 -39.546875 -0.8828125 C-38.89460938 -1.29660156 -38.24234375 -1.71039062 -37.5703125 -2.13671875 C-25.52920832 -8.07882716 -11.23308104 -6.82874351 0 0 Z " fill="#D8D8D8" transform="translate(73.171875,20.3203125)"/>
<path d="M0 0 C9.57 0 19.14 0 29 0 C27.61865094 4.14404717 26.33424704 7.57183724 24.3984375 11.3984375 C23.90859375 12.37167969 23.41875 13.34492187 22.9140625 14.34765625 C22.40617187 15.34667969 21.89828125 16.34570312 21.375 17.375 C20.859375 18.39722656 20.34375 19.41945313 19.8125 20.47265625 C18.54528127 22.98362669 17.27435444 25.49264561 16 28 C13 27 13 27 11.46606445 24.515625 C10.937146 23.43796875 10.40822754 22.3603125 9.86328125 21.25 C9.28642578 20.0846875 8.70957031 18.919375 8.11523438 17.71875 C7.51428725 16.47918396 6.91337624 15.23960041 6.3125 14 C5.70074413 12.75998493 5.08812408 11.5203958 4.47460938 10.28125 C0 1.18103206 0 1.18103206 0 0 Z " fill="#D8D8D8" transform="translate(38,42)"/>
<path d="M0 0 C0.99 0.66 1.98 1.32 3 2 C1.68 4.64 0.36 7.28 -1 10 C-4 9 -4 9 -5 7.25 C-5 5 -5 5 -2.5625 2.25 C-1.716875 1.5075 -0.87125 0.765 0 0 Z " fill="#DEDEDE" transform="translate(55,60)"/>
</svg>
